<svg width="47" height="13" fill="none" xmlns="http://www.w3.org/2000/svg"><path d="M7.127.237v6.368L2.603.237H.593v11.73h2.68V5.599l4.525 6.368h2.01V.237h-2.68zm8.224 11.964c2.464 0 4.441-1.927 4.441-4.423 0-2.497-1.977-4.424-4.44-4.424-2.464 0-4.44 1.927-4.44 4.424 0 2.496 1.976 4.423 4.44 4.423zm0-2.446c-1.089 0-1.926-.788-1.926-1.977 0-1.19.837-1.978 1.926-1.978 1.09 0 1.928.788 1.928 1.978s-.838 1.977-1.928 1.977zM28.769.237h-8.713v2.58h3.016v9.15h2.68v-9.15h3.017V.238z" fill="#fff"/><path d="M34.032 3.589v.787c-.553-.637-1.374-1.022-2.497-1.022-2.195 0-4.005 1.927-4.005 4.424 0 2.496 1.81 4.423 4.005 4.423 1.123 0 1.944-.385 2.497-1.022v.788h2.513V3.589h-2.513zm-1.994 6.233c-1.156 0-1.994-.788-1.994-2.044 0-1.257.837-2.045 1.994-2.045 1.156 0 1.994.788 1.994 2.045 0 1.256-.838 2.044-1.994 2.044zm10.957-6.468c-1.122 0-1.944.385-2.496 1.022V.237h-2.514v11.73h2.514v-.788c.552.637 1.373 1.022 2.496 1.022 2.195 0 4.005-1.927 4.005-4.423 0-2.497-1.81-4.424-4.005-4.424zm-.502 6.468c-1.157 0-1.995-.788-1.995-2.044 0-1.257.838-2.045 1.995-2.045 1.156 0 1.993.788 1.993 2.045 0 1.256-.837 2.044-1.993 2.044z" fill="#fff"/></svg>