<svg width="120" height="135" fill="none" xmlns="http://www.w3.org/2000/svg"><path d="M76.799.69c-6.789 0-13.359.908-19.62 2.58a75.427 75.427 0 00-18.282 7.583 76.033 76.033 0 00-15.702 12.036c-4.663 4.664-8.71 9.96-12.044 15.71a74.974 74.974 0 00-7.584 18.282A75.972 75.972 0 00.988 76.5h8.816a66.89 66.89 0 012.288-17.341 66.445 66.445 0 016.715-16.14A67.496 67.496 0 0129.45 29.15a67.496 67.496 0 0113.869-10.64 66.579 66.579 0 0116.14-6.717 66.843 66.843 0 0117.34-2.287V.69z" fill="url(#paint0_radial)"/><path d="M59.458 11.794a66.449 66.449 0 00-16.14 6.715 67.49 67.49 0 00-13.87 10.642 67.49 67.49 0 00-10.64 13.869 66.582 66.582 0 00-6.716 16.14 66.843 66.843 0 000 34.681 66.444 66.444 0 006.715 16.141 67.491 67.491 0 0010.642 13.869l6.229-6.229a58.403 58.403 0 01-9.238-12.044 57.615 57.615 0 01-5.832-14.024 58.003 58.003 0 010-30.107 57.87 57.87 0 015.831-14.023 58.68 58.68 0 019.239-12.044 58.398 58.398 0 0112.044-9.239 57.604 57.604 0 0114.023-5.831A58.004 58.004 0 0176.8 18.323V9.506a66.89 66.89 0 00-17.34 2.288z" fill="url(#paint1_linear)"/><path d="M29.116 63.727a48.96 48.96 0 014.947-11.899 49.619 49.619 0 017.843-10.22 49.905 49.905 0 0110.22-7.842 48.829 48.829 0 0111.898-4.948A49.224 49.224 0 0176.8 27.131v-8.808a57.957 57.957 0 00-29.077 7.819 58.683 58.683 0 00-12.045 9.238 58.398 58.398 0 00-9.238 12.044 57.6 57.6 0 00-5.831 14.023 57.957 57.957 0 00-1.987 15.054 57.958 57.958 0 007.818 29.077 58.686 58.686 0 009.238 12.044 58.4 58.4 0 0012.045 9.238 57.574 57.574 0 0014.023 5.832 58.076 58.076 0 0015.054 1.987v-8.808a49.174 49.174 0 01-24.673-6.635 49.583 49.583 0 01-10.22-7.843 49.886 49.886 0 01-7.843-10.219 48.836 48.836 0 01-4.947-11.899 49.22 49.22 0 010-25.549z" fill="url(#paint2_radial)"/><path d="M111.902 96.77a40.86 40.86 0 01-6.44 8.394 40.593 40.593 0 01-8.395 6.44 40.029 40.029 0 01-9.773 4.063 40.367 40.367 0 01-20.99 0 40.029 40.029 0 01-9.774-4.063 40.862 40.862 0 01-8.394-6.44 40.866 40.866 0 01-6.44-8.395 40.053 40.053 0 01-4.064-9.773 40.397 40.397 0 010-20.99 40.053 40.053 0 014.064-9.774 40.868 40.868 0 016.44-8.395 40.872 40.872 0 018.394-6.44 40.057 40.057 0 019.774-4.063c3.35-.9 6.87-1.387 10.495-1.387v-8.816c-4.42 0-8.695.592-12.775 1.687a48.96 48.96 0 00-11.898 4.947 49.62 49.62 0 00-10.22 7.843 49.903 49.903 0 00-7.843 10.22 48.826 48.826 0 00-4.947 11.898 49.22 49.22 0 000 25.55 48.97 48.97 0 004.947 11.898 49.606 49.606 0 007.844 10.219 49.896 49.896 0 0010.22 7.843 48.859 48.859 0 0011.898 4.948 49.22 49.22 0 0025.548 0 49.003 49.003 0 0011.899-4.948 49.567 49.567 0 0010.219-7.843 49.847 49.847 0 007.843-10.219l-7.632-4.405z" fill="url(#paint3_linear)"/><path d="M108.536 76.5c0 2.84-.381 5.59-1.087 8.217a31.918 31.918 0 01-8.216 14.218 31.866 31.866 0 01-6.57 5.045 31.278 31.278 0 01-7.648 3.179 31.602 31.602 0 01-16.432 0 31.914 31.914 0 01-14.218-8.216 31.565 31.565 0 01-5.037-6.57 31.28 31.28 0 01-3.18-7.648 31.619 31.619 0 010-16.432 31.924 31.924 0 013.18-7.649 31.879 31.879 0 015.045-6.57 31.563 31.563 0 016.57-5.036 31.28 31.28 0 017.648-3.18 31.523 31.523 0 018.216-1.086v-8.825a40.4 40.4 0 00-10.495 1.387 40.05 40.05 0 00-9.774 4.064 40.868 40.868 0 00-8.394 6.44 40.872 40.872 0 00-6.44 8.394 40.057 40.057 0 00-4.064 9.774 40.401 40.401 0 000 20.99 40.057 40.057 0 004.064 9.773 40.871 40.871 0 006.44 8.395 40.862 40.862 0 008.394 6.44 40.029 40.029 0 009.774 4.063 40.367 40.367 0 0020.99 0 40.029 40.029 0 009.774-4.063 40.847 40.847 0 008.394-6.44 40.861 40.861 0 006.44-8.395 40.07 40.07 0 004.064-9.773c.9-3.35 1.387-6.862 1.387-10.495h-8.825z" fill="url(#paint4_radial)"/><path opacity=".77" d="M114.505 75.925a31.874 31.874 0 00-3.179-7.648 32.11 32.11 0 00-5.037-6.57 31.532 31.532 0 00-6.57-5.037 31.285 31.285 0 00-7.648-3.18 31.618 31.618 0 00-16.432 0 31.928 31.928 0 00-14.218 8.217 31.56 31.56 0 00-5.037 6.57 31.275 31.275 0 00-3.18 7.648 31.615 31.615 0 000 16.432 31.933 31.933 0 008.217 14.218 31.554 31.554 0 006.57 5.037 31.239 31.239 0 007.648 3.179 31.602 31.602 0 0016.432 0 31.834 31.834 0 0014.218-8.224 31.57 31.57 0 005.037-6.57 31.242 31.242 0 003.179-7.648 31.586 31.586 0 000-16.424z" fill="url(#paint5_radial)"/><path d="M107.449 68.285a31.958 31.958 0 00-3.179-7.649 32.106 32.106 0 00-5.037-6.57 31.56 31.56 0 00-6.57-5.036 31.283 31.283 0 00-7.648-3.18 31.62 31.62 0 00-16.432 0 31.931 31.931 0 00-14.218 8.217 31.872 31.872 0 00-5.045 6.57 31.286 31.286 0 00-3.18 7.648 31.618 31.618 0 000 16.432 31.928 31.928 0 008.216 14.218 31.343 31.343 0 006.57 5.037 31.28 31.28 0 007.648 3.179 31.601 31.601 0 0016.432 0 31.866 31.866 0 0014.218-8.224 31.55 31.55 0 005.038-6.57 31.317 31.317 0 003.179-7.648 31.51 31.51 0 001.087-8.216c.008-2.83-.373-5.58-1.079-8.208z" fill="url(#paint6_linear)"/><path d="M100.287 70.207a24.193 24.193 0 00-2.44-5.856 24.871 24.871 0 00-3.862-5.037c-1.5-1.5-3.187-2.79-5.036-3.86a24.21 24.21 0 00-5.856-2.442 24.44 24.44 0 00-6.294-.827 24.44 24.44 0 00-6.294.827 24.211 24.211 0 00-5.856 2.441 24.869 24.869 0 00-5.037 3.86 24.358 24.358 0 00-3.86 5.038 24.21 24.21 0 00-2.442 5.856 24.44 24.44 0 00-.827 6.294c0 2.173.292 4.282.827 6.293a24.211 24.211 0 002.441 5.856 24.873 24.873 0 003.861 5.037c1.5 1.5 3.188 2.79 5.037 3.86a24.211 24.211 0 005.856 2.442 24.45 24.45 0 006.294.827c2.173 0 4.282-.292 6.294-.827a24.21 24.21 0 005.856-2.441 24.875 24.875 0 005.036-3.86 24.397 24.397 0 003.861-5.038 24.194 24.194 0 002.441-5.856c.536-2.011.828-4.12.828-6.293a24.41 24.41 0 00-.828-6.294zm-.056-62.915l3.966-2.263-3.966-2.27v2.043H81.057v.446h19.174v2.044zm0 6.4H81.057v.446h19.174v1.938l3.966-2.27-3.966-2.272v2.158zm0 8.857H81.057v.438h19.174v2.052l3.966-2.271-3.966-2.271v2.052zm0 9.359H81.057v.447h19.174v1.824l3.966-2.27-3.966-2.264v2.263zm0 9.036H81.057v.446h19.174v2.052l3.966-2.271-3.966-2.271v2.044zm10.401-2.29l-1.609 3.607h-.517l1.603-3.479h-2.102v-.405h2.625v.277zm.787 1.66l.197-1.937h1.99v.456h-1.571l-.117 1.059c.19-.112.406-.168.648-.168.354 0 .635.117.843.352.208.233.312.549.312.947 0 .4-.109.716-.326.947-.215.23-.516.344-.904.344-.343 0-.623-.095-.84-.285-.217-.19-.341-.454-.371-.79h.467c.03.222.109.39.237.504.128.112.297.168.507.168.23 0 .409-.078.539-.234.132-.157.197-.373.197-.649 0-.26-.071-.467-.213-.624a.716.716 0 00-.563-.237c-.215 0-.384.047-.507.141l-.13.107-.395-.102zm2.798-1.19c0-.233.074-.425.221-.576a.774.774 0 01.574-.227c.236 0 .428.076.573.23a.807.807 0 01.222.589v.19a.782.782 0 01-.224.575.767.767 0 01-.566.222.786.786 0 01-.573-.222c-.151-.149-.227-.347-.227-.595v-.186zm.368.205c0 .139.039.254.117.344a.4.4 0 00.315.134.383.383 0 00.304-.131.512.512 0 00.118-.358v-.194a.518.518 0 00-.115-.344.385.385 0 00-.312-.136.385.385 0 00-.312.136.53.53 0 00-.115.355v.194zm1.523 1.98a.78.78 0 01.222-.574.77.77 0 01.573-.227.78.78 0 01.574.224c.149.15.224.348.224.595v.19a.765.765 0 01-.793.8.786.786 0 01-.573-.222c-.151-.149-.227-.347-.227-.594v-.192zm.368.208c0 .14.039.256.118.346a.397.397 0 00.314.134.386.386 0 00.307-.131.531.531 0 00.115-.36v-.197a.503.503 0 00-.117-.345.389.389 0 00-.31-.133.396.396 0 00-.309.133.508.508 0 00-.118.355v.197zm-1.347.45l-.28-.176 1.897-3.035.28.176-1.897 3.035zm-5.068-12.318v.418h-.091c-.384.008-.69.121-.917.342-.228.22-.359.53-.395.93.205-.234.484-.351.838-.351.337 0 .607.119.808.357.203.239.304.546.304.923 0 .4-.109.72-.328.96-.217.24-.509.36-.875.36a1.11 1.11 0 01-.904-.426c-.232-.287-.347-.655-.347-1.105v-.189c0-.715.152-1.26.456-1.638.306-.379.76-.572 1.363-.581h.088zm-.648 1.75a.787.787 0 00-.467.152.793.793 0 00-.296.381v.181c0 .32.072.578.216.774.144.196.324.293.539.293a.625.625 0 00.523-.245c.128-.164.192-.378.192-.643 0-.267-.065-.482-.195-.645a.615.615 0 00-.512-.248zm4.215.48c0 .578-.099 1.007-.297 1.288-.197.281-.506.422-.925.422-.415 0-.721-.137-.92-.411-.2-.276-.303-.687-.31-1.233v-.659c0-.57.099-.995.296-1.272.198-.277.507-.416.928-.416.418 0 .726.134.923.403.198.266.299.68.305 1.237v.64zm-.494-.675c0-.418-.059-.722-.176-.913-.117-.192-.303-.288-.558-.288-.252 0-.436.096-.552.286-.115.19-.175.483-.178.877v.79c0 .42.06.73.181.931a.61.61 0 00.555.299c.243 0 .424-.094.541-.283.119-.188.182-.486.187-.891v-.808zm1.083-.806c0-.233.074-.425.221-.576a.774.774 0 01.574-.227c.236 0 .428.077.573.23a.807.807 0 01.222.59v.189a.782.782 0 01-.224.576.767.767 0 01-.566.221.786.786 0 01-.573-.221c-.151-.15-.227-.348-.227-.595v-.187zm.368.206a.51.51 0 00.117.344.4.4 0 00.315.133.383.383 0 00.304-.13.512.512 0 00.118-.358v-.195a.518.518 0 00-.115-.344.385.385 0 00-.312-.136.385.385 0 00-.312.136.53.53 0 00-.115.355v.195zm1.523 1.979a.78.78 0 01.222-.574.77.77 0 01.573-.226c.233 0 .424.074.574.224.149.15.224.347.224.595v.189a.765.765 0 01-.793.8.786.786 0 01-.573-.221c-.151-.15-.227-.348-.227-.595v-.192zm.368.208c0 .14.039.256.118.347a.397.397 0 00.314.133.386.386 0 00.307-.13.531.531 0 00.115-.36v-.198a.503.503 0 00-.117-.344.389.389 0 00-.31-.134.397.397 0 00-.309.134.508.508 0 00-.118.355v.197zm-1.347.45l-.28-.175 1.897-3.036.28.176-1.897 3.036zm-6.778-10.53l.198-1.937h1.99v.456h-1.572l-.117 1.06c.19-.113.406-.169.648-.169.354 0 .635.118.843.353.208.232.312.548.312.947 0 .4-.108.715-.325.946-.215.23-.517.345-.904.345-.344 0-.624-.096-.841-.286-.217-.19-.34-.453-.37-.79h.466c.031.223.11.39.238.505a.742.742 0 00.507.168.661.661 0 00.538-.235c.132-.157.198-.373.198-.648 0-.26-.071-.468-.214-.624a.714.714 0 00-.562-.238c-.216 0-.385.047-.507.142l-.131.106-.395-.101zm5.277.29c0 .579-.099 1.008-.297 1.29-.197.28-.506.42-.925.42-.415 0-.721-.136-.92-.41-.2-.276-.303-.687-.31-1.233v-.659c0-.57.099-.994.296-1.272.198-.277.507-.416.928-.416.418 0 .726.134.923.403.198.267.299.68.305 1.238v.64zm-.494-.674c0-.418-.059-.722-.176-.912-.117-.192-.303-.288-.558-.288-.252 0-.436.095-.552.285-.115.19-.175.483-.178.878v.79c0 .419.06.73.181.93a.61.61 0 00.555.299c.243 0 .424-.095.541-.283.119-.189.182-.485.187-.89v-.81zm1.083-.806c0-.233.074-.425.221-.576a.774.774 0 01.574-.227c.236 0 .428.077.573.23a.807.807 0 01.222.59v.189a.781.781 0 01-.224.576.767.767 0 01-.566.221.786.786 0 01-.573-.221c-.151-.15-.227-.348-.227-.595v-.187zm.368.206a.51.51 0 00.117.344.4.4 0 00.315.133.383.383 0 00.304-.13.512.512 0 00.118-.358v-.195a.518.518 0 00-.115-.344.385.385 0 00-.312-.136.385.385 0 00-.312.136.529.529 0 00-.115.355v.195zm1.523 1.979a.78.78 0 01.222-.574.77.77 0 01.573-.226c.233 0 .424.074.574.224.149.15.224.347.224.595v.189a.787.787 0 01-.224.576.766.766 0 01-.569.224.786.786 0 01-.573-.221c-.151-.15-.227-.348-.227-.595v-.192zm.368.208c0 .14.039.256.118.347a.397.397 0 00.314.133.386.386 0 00.307-.13.53.53 0 00.115-.36v-.198a.503.503 0 00-.117-.344.389.389 0 00-.31-.134.397.397 0 00-.309.134.508.508 0 00-.118.355v.197zm-1.347.45l-.28-.175 1.897-3.036.28.176-1.897 3.036zm-6.287-11.296h.371c.233-.004.416-.065.549-.184.134-.12.2-.28.2-.483 0-.456-.226-.683-.68-.683-.213 0-.384.061-.512.184a.638.638 0 00-.189.483h-.494a.99.99 0 01.336-.766c.226-.204.512-.307.859-.307.367 0 .654.097.862.291.208.194.312.463.312.808a.849.849 0 01-.165.491.983.983 0 01-.446.355c.213.068.378.18.494.336a.93.93 0 01.176.573c0 .35-.114.626-.342.83-.227.205-.524.307-.888.307-.365 0-.662-.099-.891-.296a.983.983 0 01-.342-.782h.497c0 .205.066.368.2.491.133.123.312.184.536.184.238 0 .42-.062.547-.187.126-.124.189-.303.189-.536 0-.226-.069-.399-.208-.52-.139-.12-.339-.183-.6-.187h-.371v-.402zm4.786.525c0 .578-.099 1.007-.297 1.288-.197.281-.506.422-.925.422-.415 0-.721-.137-.92-.41-.2-.277-.303-.687-.31-1.233V13c0-.57.099-.994.296-1.271.198-.278.507-.417.928-.417.418 0 .726.135.923.403.198.267.299.68.305 1.238v.64zm-.494-.675c0-.418-.059-.722-.176-.912-.117-.192-.303-.288-.558-.288-.252 0-.436.095-.552.285-.115.19-.175.483-.178.878v.79c0 .42.06.73.181.93a.61.61 0 00.555.3c.243 0 .424-.095.541-.284.119-.188.182-.485.187-.89v-.809zm1.083-.805c0-.233.074-.425.221-.577a.774.774 0 01.574-.226c.236 0 .428.076.573.23a.807.807 0 01.222.589v.189a.781.781 0 01-.224.576.767.767 0 01-.566.222.786.786 0 01-.573-.222c-.151-.15-.227-.348-.227-.595v-.186zm.368.205c0 .139.039.253.117.344a.4.4 0 00.315.133.383.383 0 00.304-.13.512.512 0 00.118-.358v-.194a.518.518 0 00-.115-.345.385.385 0 00-.312-.136.385.385 0 00-.312.136.529.529 0 00-.115.355v.195zm1.523 1.98a.78.78 0 01.222-.574.77.77 0 01.573-.227.78.78 0 01.574.224c.149.15.224.348.224.595v.19a.787.787 0 01-.224.575.766.766 0 01-.569.225.786.786 0 01-.573-.222c-.151-.15-.227-.348-.227-.595v-.192zm.368.207c0 .14.039.256.118.347a.397.397 0 00.314.133.386.386 0 00.307-.13.53.53 0 00.115-.36v-.198a.503.503 0 00-.117-.344.389.389 0 00-.31-.133.397.397 0 00-.309.133.508.508 0 00-.118.355v.197zm-1.347.451l-.28-.176 1.897-3.035.28.176-1.897 3.035zm-5.383-9.266h-.496V2.4l-.995.365v-.448l1.414-.53h.077V5.69zm1.673-1.947l.197-1.937h1.99v.456h-1.571l-.117 1.06c.19-.113.406-.169.648-.169.354 0 .635.118.843.352.208.233.312.549.312.947 0 .4-.109.716-.326.947-.215.23-.516.344-.904.344-.343 0-.623-.095-.84-.285-.217-.19-.341-.454-.371-.79h.467c.03.223.109.39.237.504.128.112.297.168.507.168.23 0 .409-.078.539-.234.132-.157.197-.373.197-.648 0-.26-.071-.468-.213-.625a.716.716 0 00-.563-.237c-.215 0-.384.047-.507.141l-.13.107-.395-.101zm2.798-1.19c0-.233.074-.425.221-.576a.774.774 0 01.574-.227c.236 0 .428.077.573.23a.807.807 0 01.222.589v.19a.781.781 0 01-.224.576.767.767 0 01-.566.221.786.786 0 01-.573-.221c-.151-.15-.227-.348-.227-.595v-.187zm.368.205c0 .14.039.254.117.345a.4.4 0 00.315.133.383.383 0 00.304-.13.512.512 0 00.118-.358v-.195a.518.518 0 00-.115-.344.385.385 0 00-.312-.136.385.385 0 00-.312.136.529.529 0 00-.115.355v.194zm1.523 1.98a.78.78 0 01.222-.574.77.77 0 01.573-.227.78.78 0 01.574.224c.149.15.224.348.224.595v.19a.766.766 0 01-.793.8.786.786 0 01-.573-.221c-.151-.15-.227-.348-.227-.595v-.192zm.368.208c0 .14.039.256.118.346a.397.397 0 00.314.134.386.386 0 00.307-.13.531.531 0 00.115-.36v-.198a.503.503 0 00-.117-.344.389.389 0 00-.31-.134.397.397 0 00-.309.134.508.508 0 00-.118.354v.198zm-1.347.45l-.28-.176 1.897-3.035.28.176-1.897 3.036z" fill="#F5F7F6"/><path d="M80.377 71.25c-2.051-1.63-4.958-1.658-6.928-.055-1.412 1.141-2.119 2.853-2.119 5.067 0 1.467 1.318 3.572 1.48 3.844.014.013 1.101 1.48 1.36 3.233l.067.434h5.474l.068-.434c.258-1.753 1.345-3.22 1.372-3.26.15-.231 1.467-2.337 1.467-3.804-.013-2.173-.76-3.857-2.241-5.026zm-3.518 2.88a2.377 2.377 0 00-2.12 1.453.52.52 0 01-.678.271.51.51 0 01-.272-.665 3.418 3.418 0 013.029-2.079.504.504 0 01.516.503c.027.272-.19.502-.475.516zm2.811 11.939h-5.65a.516.516 0 110-1.032h5.65a.516.516 0 110 1.032z" fill="#193566"/><path d="M78.394 85.797h-3.22v1.345h3.22v-1.345zm-1.658-16.938a.516.516 0 01-.516-.516v-1.44a.516.516 0 111.032 0v1.44c0 .299-.23.516-.516.516zm-4.088 1.154a.524.524 0 01-.448-.258l-.72-1.25a.509.509 0 01.883-.502l.72 1.25a.51.51 0 01-.19.693c-.069.054-.15.067-.245.067zm-2.961 3.057a.61.61 0 01-.258-.068l-1.25-.72a.509.509 0 01.503-.883l1.25.72a.51.51 0 01.19.693.487.487 0 01-.435.258zm-1.047 4.116h-1.439a.516.516 0 110-1.033h1.44a.516.516 0 110 1.033zm-.08 4.808a.509.509 0 01-.258-.95l1.249-.72a.51.51 0 01.502.882l-1.25.72a.509.509 0 01-.244.068zm16.707-.19a.609.609 0 01-.258-.068l-1.25-.72a.509.509 0 01.503-.883l1.25.72a.51.51 0 01-.245.951zm1.236-4.849h-1.44a.516.516 0 110-1.033h1.44a.516.516 0 110 1.033zm-2.594-4.089a.51.51 0 01-.258-.95l1.249-.72a.51.51 0 01.503.882l-1.25.72a.394.394 0 01-.245.068zm-3.043-2.961a.61.61 0 01-.258-.068.51.51 0 01-.19-.693l.72-1.25a.509.509 0 01.883.502l-.72 1.251a.52.52 0 01-.435.258z" fill="#193566"/><defs><radialGradient id="paint0_radial" cx="0" cy="0" r="1" gradientUnits="userSpaceOnUse" gradientTransform="rotate(-90 50.609 11.715) scale(65.2316)"><stop stop-color="#06F"/><stop offset=".276" stop-color="#06F"/><stop offset=".641" stop-color="#0097CE"/><stop offset="1" stop-color="#0058CB"/></radialGradient><radialGradient id="paint2_radial" cx="0" cy="0" r="1" gradientUnits="userSpaceOnUse" gradientTransform="rotate(-90 55.016 7.308) scale(65.2318)"><stop stop-color="#06F"/><stop offset=".307" stop-color="#06F"/><stop offset=".651" stop-color="#0097CE"/><stop offset=".982" stop-color="#0058CB"/></radialGradient><radialGradient id="paint4_radial" cx="0" cy="0" r="1" gradientUnits="userSpaceOnUse" gradientTransform="rotate(-90 69.562 -7.238) scale(65.2315)"><stop stop-color="#06F"/><stop offset=".339" stop-color="#06F"/><stop offset=".693" stop-color="#0097CE"/><stop offset=".982" stop-color="#0058CB"/></radialGradient><radialGradient id="paint5_radial" cx="0" cy="0" r="1" gradientUnits="userSpaceOnUse" gradientTransform="translate(83.852 84.141) scale(31.7366)"><stop offset="0"/><stop offset=".089" stop-color="#1D1D1D"/><stop offset=".346" stop-color="#6C6C6C"/><stop offset=".575" stop-color="#ABABAB"/><stop offset=".767" stop-color="#D9D9D9"/><stop offset=".914" stop-color="#F5F5F5"/><stop offset="1" stop-color="#fff"/></radialGradient><linearGradient id="paint1_linear" x1="43.301" y1="144.745" x2="43.301" y2="13.838" gradientUnits="userSpaceOnUse"><stop stop-color="#27B7FF"/><stop offset=".99" stop-color="#F408AB"/></linearGradient><linearGradient id="paint3_linear" x1="73.482" y1="144.745" x2="73.482" y2="13.838" gradientUnits="userSpaceOnUse"><stop stop-color="#27B7FF"/><stop offset=".99" stop-color="#F408AB"/></linearGradient><linearGradient id="paint6_linear" x1="105.008" y1="104.71" x2="52.875" y2="52.577" gradientUnits="userSpaceOnUse"><stop stop-color="#071A35"/><stop offset="1" stop-color="#193566"/></linearGradient></defs></svg>